<?xml version="1.0" standalone="no"?>
<!DOCTYPE svg PUBLIC "-//W3C//DTD SVG 20010904//EN"
 "http://www.w3.org/TR/2001/REC-SVG-20010904/DTD/svg10.dtd">
<svg version="1.0" xmlns="http://www.w3.org/2000/svg"
 width="8333.000000pt" height="8333.000000pt" viewBox="0 0 8333.000000 8333.000000"
 preserveAspectRatio="xMidYMid meet">

<g transform="translate(0.000000,8333.000000) scale(0.100000,-0.100000)"
fill="#000000" stroke="none">
<path d="M41790 75393 c-528 -27 -800 -48 -1155 -89 -3202 -367 -6149 -1728
-8500 -3924 -1094 -1022 -2049 -2223 -2787 -3505 -670 -1163 -1168 -2379
-1504 -3670 -36 -137 -68 -258 -72 -268 -4 -11 -133 -75 -352 -175 -190 -87
-390 -182 -445 -210 -583 -302 -1069 -825 -1325 -1427 -124 -291 -202 -606
-230 -930 -15 -175 -13 -270 15 -743 14 -235 45 -787 70 -1227 25 -440 47
-831 50 -870 3 -38 9 -153 15 -255 30 -544 121 -2135 126 -2200 95 -1198 922
-2222 2070 -2564 202 -60 259 -70 1237 -228 l268 -43 86 -150 c615 -1068 1396
-2095 2270 -2986 l153 -155 -97 -18 c-426 -79 -713 -207 -995 -445 -324 -272
-557 -669 -637 -1083 -45 -235 -45 -308 -1 -955 22 -323 56 -817 76 -1098 19
-280 39 -564 44 -630 9 -115 8 -121 -13 -150 -447 -614 -763 -1100 -1118
-1718 l-108 -189 -28 47 c-92 155 -239 341 -380 476 -326 313 -711 510 -1198
613 -93 19 -438 92 -765 160 -327 69 -865 182 -1195 251 -1033 217 -5492 1153
-5885 1235 -206 43 -1565 328 -3020 634 -1455 305 -2816 591 -3025 635 -438
92 -498 101 -643 101 -664 0 -1243 -456 -1400 -1100 -49 -200 -102 -663 -123
-1080 -13 -251 -6 -1020 11 -1260 32 -457 67 -811 120 -1202 384 -2852 1513
-6079 2938 -8398 498 -811 760 -1129 1208 -1468 387 -292 893 -524 1369 -627
44 -10 81 -19 83 -20 2 -2 12 -45 23 -96 52 -253 165 -501 325 -716 82 -110
279 -308 398 -402 433 -339 1047 -576 1816 -700 175 -29 446 -62 627 -76 l82
-7 66 -132 c179 -361 460 -670 800 -883 191 -119 431 -238 670 -333 954 -378
2074 -429 3310 -150 419 95 900 287 1228 492 l118 74 92 -8 c51 -5 412 -35
802 -68 391 -33 1250 -105 1910 -161 1040 -87 1221 -100 1357 -97 l157 5 4
-1041 c3 -1137 0 -1068 63 -1318 106 -422 354 -819 688 -1105 363 -310 820
-497 1273 -520 l123 -6 5 -31 c2 -17 23 -209 45 -426 169 -1647 469 -3864 840
-6205 78 -494 237 -1467 285 -1745 225 -1304 269 -1559 381 -2175 36 -198 94
-517 130 -709 35 -192 63 -349 62 -350 -2 -1 -66 -21 -143 -45 -604 -184
-1089 -438 -1490 -782 -115 -98 -311 -299 -399 -409 -270 -337 -484 -785 -580
-1211 -67 -300 -90 -513 -90 -849 0 -333 24 -585 90 -925 66 -335 183 -570
398 -793 212 -220 449 -353 766 -429 72 -17 292 -18 4745 -20 5181 -4 4772 -9
5045 63 745 195 1324 813 1469 1568 41 212 43 299 21 936 -88 2618 -144 4869
-180 7325 -12 764 -25 3393 -18 3385 3 -3 31 -81 63 -175 327 -962 684 -1891
993 -2585 255 -575 453 -960 732 -1425 644 -1077 1012 -2605 1064 -4429 l4
-159 -117 -121 c-448 -465 -725 -1097 -801 -1831 -18 -171 -23 -519 -11 -695
26 -364 90 -761 153 -940 173 -489 592 -832 1113 -910 48 -7 1211 -10 3725 -7
4039 3 3682 -3 4015 64 670 133 1310 490 1822 1016 147 151 223 252 290 383
115 225 180 463 225 824 20 159 17 691 -5 910 -26 255 -61 483 -118 760 -239
1171 -407 2010 -554 2780 -891 4650 -1443 8309 -1600 10590 -31 454 -36 594
-42 1040 -6 500 2 714 42 1075 14 121 34 314 45 429 11 116 23 213 27 216 5 4
100 58 213 120 244 135 309 176 414 260 268 213 478 514 587 840 52 157 77
277 90 445 11 131 6 231 -65 1489 l-77 1348 37 52 c378 530 537 1149 449 1761
-8 55 -50 282 -94 505 -44 222 -78 406 -76 408 2 2 12 -1 22 -6 68 -36 636
-198 901 -257 442 -98 787 -137 1202 -138 393 -1 641 26 975 108 637 155 1191
470 1671 949 981 982 1583 2628 1880 5136 15 124 27 226 28 227 0 1 53 13 117
27 417 94 861 321 1329 680 382 294 922 831 1266 1263 522 652 803 1393 830
2188 19 554 -105 1154 -347 1671 -27 58 -49 112 -49 118 0 7 12 23 26 37 95
88 244 300 326 463 286 569 260 1175 -73 1676 -82 124 -282 325 -401 403 -173
113 -379 196 -583 233 -119 22 -451 30 -587 15 -222 -26 -492 -92 -723 -178
-247 -93 -416 -176 -715 -354 -162 -97 -581 -346 -930 -553 -349 -208 -652
-388 -672 -402 l-37 -24 -5 43 c-3 23 -12 220 -21 437 -9 217 -21 440 -26 495
-31 303 -131 608 -277 842 -218 352 -494 571 -831 660 -81 22 -119 26 -241 26
-101 0 -169 -5 -223 -17 -310 -68 -572 -228 -853 -519 -301 -312 -558 -714
-828 -1293 -45 -99 -442 -863 -880 -1699 -439 -836 -830 -1581 -869 -1655 -39
-74 -85 -161 -102 -192 l-31 -57 -160 177 c-365 402 -803 843 -1189 1198 -71
65 -149 137 -172 159 l-43 40 -20 235 c-62 726 -144 1562 -166 1689 -121 706
-641 1313 -1318 1540 l-115 38 131 164 c692 866 1266 1767 1748 2744 134 272
350 743 350 765 0 10 -56 -6 725 214 781 220 846 243 1122 386 262 135 485
300 704 519 233 234 399 463 543 751 209 421 310 846 309 1310 -1 151 -62
1318 -98 1855 -3 44 -12 202 -20 350 -64 1160 -167 2906 -175 2975 -119 968
-697 1803 -1554 2246 -191 99 -305 143 -691 268 -181 59 -393 128 -469 154
l-140 47 -83 213 c-964 2481 -2535 4612 -4653 6309 -1520 1218 -3317 2145
-5197 2682 -1133 324 -2240 503 -3468 561 -184 9 -1085 11 -1235 3z m1385
-822 c304 -21 551 -42 775 -67 2711 -301 5254 -1374 7385 -3118 637 -521 1268
-1137 1794 -1749 56 -64 101 -120 101 -122 0 -3 -42 31 -92 76 -51 45 -165
141 -253 214 -1251 1034 -2665 1851 -4237 2449 -1455 553 -3031 903 -4623
1025 -527 41 -678 46 -1380 46 -774 0 -1108 -15 -1740 -76 -2370 -229 -4643
-932 -6625 -2047 -963 -542 -1840 -1166 -2650 -1885 -342 -304 -586 -545
-1079 -1067 -38 -40 -34 -32 30 65 324 492 793 1089 1279 1630 195 217 784
804 1005 1002 1169 1046 2386 1836 3770 2445 1601 706 3299 1099 5120 1188
232 11 1212 5 1420 -9z m480 -1975 c950 -63 1787 -182 2630 -372 2489 -561
4715 -1686 6530 -3298 220 -196 751 -724 942 -938 559 -624 1032 -1274 1422
-1952 l91 -159 -52 -36 c-28 -20 -52 -36 -53 -36 -1 0 -55 72 -120 160 -1392
1896 -3409 3405 -5860 4385 -2543 1017 -5405 1398 -8295 1104 -3281 -333
-6345 -1543 -8710 -3439 -1239 -993 -2262 -2160 -2990 -3413 -140 -241 -127
-225 -170 -212 -19 5 -50 10 -69 10 -22 0 -32 4 -28 13 106 269 416 898 605
1227 860 1500 2053 2823 3547 3936 1336 994 2892 1779 4550 2294 1368 425
2767 667 4275 740 292 14 1478 4 1755 -14z m1265 -3875 c198 -39 851 -202
1175 -294 1051 -299 2007 -665 2885 -1103 335 -168 427 -216 628 -331 64 -36
137 -77 161 -90 238 -134 792 -492 1029 -667 872 -641 1483 -1226 2085 -1996
78 -99 253 -345 342 -480 644 -979 1026 -2002 1149 -3085 55 -482 46 -1088
-25 -1570 -136 -938 -480 -1837 -1017 -2665 -300 -461 -647 -883 -1077 -1308
-189 -187 -268 -261 -440 -411 -77 -68 -263 -221 -268 -221 -3 0 1 28 10 63 8
34 34 154 58 267 526 2458 423 4702 -308 6745 -126 352 -282 720 -456 1080
-261 538 -585 1082 -965 1619 -105 148 -323 434 -509 666 -371 463 -1000 1117
-1532 1595 -139 125 -423 370 -511 441 -33 27 -116 94 -185 150 -641 518
-1488 1111 -2196 1538 -109 65 -133 84 -95 72 9 -3 37 -10 62 -15z m-11423
-2546 c121 -20 229 -55 334 -108 530 -271 765 -903 541 -1453 -31 -77 -58
-124 -472 -834 -155 -267 -306 -516 -335 -555 -280 -375 -759 -542 -1212 -424
-234 61 -465 191 -611 343 -218 227 -322 485 -322 800 0 184 27 311 99 471 59
130 369 626 554 885 382 536 490 651 717 765 221 111 467 149 707 110z m22198
-1173 c9 -6 57 -107 72 -152 6 -19 -23 26 -66 103 -30 53 -32 68 -6 49z m1262
-407 c291 -95 517 -211 710 -362 433 -337 712 -814 797 -1359 14 -90 59 -833
181 -2999 19 -341 53 -946 76 -1345 44 -772 46 -940 14 -1130 -64 -387 -224
-732 -478 -1035 -215 -257 -509 -466 -842 -598 -49 -20 -259 -84 -465 -142
-206 -58 -382 -108 -392 -111 -12 -4 1 48 63 235 187 568 351 1204 468 1816
118 617 194 1240 243 1985 18 265 17 1405 0 1675 -67 1047 -196 1905 -423
2820 -52 210 -144 551 -159 591 -6 15 -6 24 0 24 5 0 98 -29 207 -65z m-28398
-1252 c-24 -56 -34 -69 -25 -31 11 47 25 78 35 78 6 0 1 -21 -10 -47z m-993
-440 c-45 -219 -128 -914 -160 -1333 -42 -539 -54 -1386 -28 -1870 74 -1348
282 -2539 657 -3760 185 -602 456 -1306 709 -1844 31 -66 54 -121 52 -124 -3
-2 -137 17 -298 43 -422 68 -583 112 -815 226 -634 310 -1062 904 -1164 1614
-5 39 -30 417 -54 840 -249 4278 -248 4253 -235 4415 51 683 422 1299 995
1650 84 52 315 169 333 170 10 0 12 -8 8 -27z m4284 -2147 c324 -69 578 -210
805 -448 117 -122 185 -217 258 -360 104 -202 150 -386 167 -668 67 -1109 276
-2165 622 -3140 70 -197 95 -299 107 -439 24 -271 -39 -548 -178 -784 -192
-324 -502 -546 -880 -629 -140 -31 -394 -31 -540 1 -370 79 -644 277 -887 641
-687 1027 -1118 2089 -1268 3120 -77 531 -86 1196 -20 1520 109 533 501 970
1024 1140 101 33 228 61 340 74 92 11 338 -4 450 -28z m23235 -6405 c28 -11
58 -22 68 -25 9 -3 17 -10 17 -15 0 -15 -252 -508 -355 -696 -1407 -2564
-3575 -4647 -6170 -5930 -378 -186 -682 -321 -1085 -480 -248 -98 -310 -121
-590 -217 -2354 -808 -4958 -981 -7405 -493 -1583 316 -3100 902 -4483 1732
-1770 1061 -3311 2516 -4474 4223 -111 163 -288 437 -288 445 0 3 22 5 48 5
27 0 71 7 97 15 l48 14 61 -67 c104 -117 575 -582 731 -722 959 -864 1973
-1549 3180 -2145 2703 -1336 5872 -1901 9105 -1624 2588 221 5066 989 7190
2226 1563 911 2893 2052 3931 3373 63 80 157 205 209 277 52 73 100 130 105
128 6 -2 33 -13 60 -24z m5943 -3962 c136 -66 278 -253 357 -469 58 -160 63
-212 95 -890 16 -349 32 -720 35 -825 8 -220 16 -278 49 -351 51 -110 183
-206 305 -219 124 -14 353 -96 511 -183 352 -193 653 -532 818 -922 37 -86
120 -344 123 -380 5 -52 18 97 18 205 4 586 -215 1144 -613 1563 -38 40 -67
74 -65 76 21 21 1967 1170 2034 1201 211 99 454 181 660 222 68 14 135 18 280
17 172 -1 198 -3 270 -25 117 -36 208 -91 296 -178 242 -243 281 -598 104
-951 -76 -151 -215 -314 -380 -445 -103 -82 -152 -157 -175 -269 -22 -110 2
-208 85 -336 103 -159 206 -380 281 -601 293 -868 160 -1750 -379 -2514 -171
-242 -369 -468 -696 -795 -251 -251 -394 -378 -599 -534 -410 -310 -852 -513
-1127 -517 -113 -2 -351 18 -475 40 -597 107 -1192 371 -1702 757 -54 41 -98
71 -98 67 0 -13 166 -240 268 -368 132 -164 495 -526 662 -659 172 -137 435
-312 618 -412 l143 -77 -6 -41 c-3 -23 -17 -140 -31 -261 -47 -410 -123 -911
-190 -1259 -45 -233 -97 -471 -104 -479 -19 -21 -601 -57 -929 -57 -1447 2
-2657 392 -3613 1165 -161 130 -537 506 -664 665 -262 325 -472 662 -618 991
l-65 146 525 1194 c296 674 567 1276 623 1384 54 104 502 960 996 1900 948
1805 1007 1919 1150 2219 323 680 718 1152 1030 1232 66 17 117 10 193 -27z
m-7561 -254 c83 -8 184 -24 224 -34 371 -95 675 -358 815 -707 65 -161 71
-198 139 -904 19 -201 35 -371 35 -377 0 -7 -62 34 -137 91 -597 447 -1197
829 -1795 1140 l-167 87 122 116 c154 147 586 586 587 596 0 9 4 9 177 -8z
m-20795 -1177 c160 -136 487 -398 620 -498 48 -36 87 -67 87 -70 1 -3 -59 -41
-132 -85 -318 -192 -752 -500 -1062 -755 -357 -294 -775 -689 -1098 -1038 -82
-89 -152 -160 -155 -157 -8 8 -101 1384 -102 1506 0 64 7 153 15 196 74 391
353 712 727 837 80 27 322 77 633 131 110 19 223 39 250 44 28 5 55 9 62 10 6
0 76 -54 155 -121z m19430 -206 c507 -244 1098 -595 1618 -961 778 -546 1592
-1253 2309 -2006 400 -419 704 -761 698 -785 -4 -14 -960 -2192 -1006 -2290
-11 -25 -198 -462 -416 -971 -273 -638 -399 -944 -405 -985 -28 -173 64 -345
227 -426 64 -31 73 -33 173 -32 86 0 114 4 153 22 78 35 135 82 175 142 20 30
134 281 252 557 l214 502 20 -32 c141 -231 330 -494 506 -707 132 -158 508
-536 665 -667 383 -319 824 -599 1255 -798 687 -318 1405 -502 2260 -581 236
-21 893 -30 1159 -15 112 7 206 9 209 7 7 -7 -85 -273 -163 -471 -168 -429
-333 -750 -556 -1080 -251 -373 -584 -702 -915 -907 -613 -379 -1381 -492
-2299 -337 -729 123 -1548 410 -2465 865 -268 133 -526 267 -542 282 -4 4 -41
169 -83 367 -411 1941 -948 3827 -1620 5685 -280 775 -520 1375 -813 2030
-143 321 -414 901 -419 897 -2 -2 22 -71 53 -153 179 -475 461 -1304 614
-1804 451 -1472 793 -2902 1090 -4560 76 -426 152 -892 145 -898 -7 -7 -229
-24 -2310 -181 -797 -61 -1453 -107 -1456 -103 -3 4 -16 93 -28 197 -54 467
-182 1290 -266 1709 -72 364 -176 590 -389 843 -220 262 -570 468 -917 537
-205 41 -907 121 -1499 171 -1345 112 -2869 137 -4375 70 -1703 -76 -3524
-274 -5142 -560 -280 -49 -376 -72 -490 -115 -462 -177 -831 -562 -987 -1031
-70 -212 -84 -325 -93 -771 -3 -191 -9 -352 -13 -358 -5 -9 -101 3 -346 44
-187 31 -737 121 -1224 201 -487 80 -1055 173 -1264 207 l-379 63 6 500 c8
745 42 1235 133 1910 146 1099 374 2059 689 2907 35 95 63 174 61 176 -11 10
-330 -631 -446 -893 -555 -1259 -969 -2774 -1165 -4265 -15 -113 -28 -206 -30
-208 -2 -3 -2374 386 -2391 392 -6 2 -32 93 -58 203 -26 109 -155 633 -287
1164 l-240 966 107 204 c1214 2327 2672 4031 4279 4996 83 50 217 127 299 171
l149 81 56 -36 c1354 -875 2714 -1487 4224 -1899 994 -272 2006 -436 3127
-506 318 -20 1366 -17 1700 5 1562 103 2943 390 4338 903 1512 556 2983 1393
4197 2387 77 64 143 116 147 116 4 1 90 -39 190 -87z m-38707 -2036 c275 -58
790 -166 1145 -240 355 -74 893 -187 1195 -251 303 -64 699 -147 880 -185 718
-150 1884 -395 3260 -684 275 -58 790 -166 1145 -240 355 -74 893 -187 1195
-251 303 -64 699 -147 880 -185 786 -165 3162 -663 3983 -836 265 -56 346 -81
497 -154 157 -76 276 -161 405 -290 163 -163 293 -377 363 -595 52 -163 403
-1566 687 -2750 271 -1128 587 -2539 780 -3480 22 -110 56 -274 75 -365 54
-257 165 -821 225 -1140 17 -91 40 -210 50 -265 100 -519 264 -1459 364 -2087
95 -595 116 -741 116 -807 0 -74 -24 -157 -64 -225 -24 -40 -102 -126 -115
-126 -3 0 -21 62 -38 138 -40 169 -187 788 -213 897 -10 44 -53 224 -95 400
-42 176 -85 356 -95 400 -11 44 -53 224 -95 400 -42 176 -84 356 -95 400 -10
44 -62 262 -115 485 -53 223 -139 583 -190 800 -242 1017 -297 1251 -315 1325
-10 44 -50 213 -89 375 -232 979 -400 1683 -551 2320 -55 234 -141 596 -191
805 -49 209 -96 407 -104 440 -8 33 -46 193 -85 355 -75 316 -139 517 -219
698 -319 715 -939 1280 -1674 1526 -157 53 -165 55 -1407 326 -630 138 -1194
262 -1255 275 -60 13 -438 96 -840 184 -1043 228 -2972 651 -3640 797 -313 68
-619 136 -680 149 -60 13 -182 40 -270 59 -88 19 -272 60 -410 90 -673 147
-4529 990 -5020 1097 -308 67 -562 124 -565 126 -2 2 11 34 30 71 51 99 163
207 271 260 106 52 200 73 304 68 50 -3 270 -44 580 -110z m-973 -1170 c161
-36 489 -108 728 -161 239 -53 496 -109 570 -125 74 -16 216 -47 315 -69 99
-21 952 -208 1895 -415 943 -206 2446 -535 3340 -731 894 -196 1945 -425 2335
-511 391 -85 820 -179 955 -209 135 -30 493 -108 795 -174 495 -108 2062 -451
2423 -531 306 -67 555 -176 793 -346 106 -76 300 -262 388 -373 146 -183 265
-402 335 -612 30 -89 137 -529 296 -1214 36 -157 407 -1721 460 -1940 10 -44
51 -215 90 -380 39 -165 82 -345 95 -400 13 -55 56 -235 95 -400 39 -165 80
-336 90 -380 11 -44 46 -195 80 -335 33 -140 67 -282 75 -315 8 -33 49 -204
90 -380 42 -176 85 -356 95 -400 11 -44 105 -442 210 -885 238 -1005 571
-2403 612 -2573 16 -70 28 -131 24 -134 -3 -4 -156 14 -339 40 -1832 255
-2353 330 -2363 338 -6 5 -28 37 -49 72 -51 84 -200 280 -304 401 -571 665
-1483 1247 -2322 1480 -445 124 -731 180 -1056 207 -182 15 -627 6 -778 -15
-812 -116 -1467 -507 -1877 -1121 -44 -66 -86 -121 -93 -123 -11 -3 -223 26
-1160 158 -115 16 -291 41 -390 54 -99 14 -439 61 -755 106 -316 44 -642 90
-725 101 -412 57 -732 160 -1050 337 -353 196 -679 491 -907 820 -94 136 -365
551 -446 683 -95 157 -319 546 -430 749 -78 143 -422 822 -422 833 0 3 -26 60
-59 128 -973 2059 -1711 4690 -1930 6884 -31 311 -41 433 -61 790 -7 143 -10
861 -2 1038 3 87 5 97 22 97 11 0 151 -29 312 -64z m32222 -4598 c5 -149 44
-2520 48 -2958 1 -152 -1 -196 -16 -245 -23 -77 -60 -149 -102 -202 -19 -23
-303 -273 -632 -554 -328 -282 -638 -554 -688 -604 -220 -220 -356 -513 -383
-825 -8 -93 -3 -248 99 -2903 18 -455 29 -831 25 -835 -13 -13 -2070 -8 -2380
6 -1042 46 -2217 132 -2414 177 -90 21 -252 102 -329 165 -122 100 -235 269
-276 411 -30 108 -176 1013 -251 1559 -57 424 -165 1370 -165 1454 0 16 108
135 365 407 372 390 470 505 528 616 17 35 34 63 37 63 3 0 18 -39 33 -88 93
-285 264 -566 482 -791 417 -431 967 -646 1557 -610 479 29 912 226 1264 574
336 332 533 719 611 1200 22 137 24 474 4 615 -89 627 -449 1187 -969 1509
-321 199 -654 294 -1037 294 -379 0 -696 -89 -1023 -285 -182 -109 -389 -290
-525 -458 -121 -150 -250 -367 -317 -533 l-24 -57 -22 57 c-105 281 -318 518
-587 653 -121 61 -225 94 -387 123 l-125 22 3 255 c5 375 18 625 38 700 22 89
91 232 148 307 91 120 213 215 352 273 87 36 125 45 440 99 1696 295 3581 491
5319 551 443 15 459 16 896 18 l397 2 6 -162z m1256 142 c631 -26 1137 -60
1675 -111 527 -50 1032 -112 1135 -140 275 -74 500 -286 585 -553 46 -141 174
-884 249 -1441 120 -880 194 -1723 236 -2665 36 -823 26 -2296 -20 -2827 -10
-114 -43 -238 -82 -318 -100 -200 -287 -364 -497 -436 -30 -11 -169 -44 -310
-73 -1548 -330 -3158 -549 -4784 -652 -142 -9 -261 -13 -265 -9 -4 3 -23 428
-43 943 -21 515 -52 1286 -69 1712 -38 957 -38 978 -16 1055 23 77 60 149 103
202 18 23 319 288 668 588 348 300 659 573 690 607 120 133 222 309 280 481
57 173 68 259 67 537 -2 302 -39 2629 -47 2908 l-5 202 107 0 c60 0 214 -4
343 -10z m-15077 -1990 c403 -66 881 -144 1062 -174 182 -30 951 -156 1710
-281 759 -124 1637 -268 1950 -320 314 -51 620 -101 680 -111 61 -9 114 -20
118 -24 5 -4 -270 -295 -610 -646 -821 -849 -4404 -4557 -4413 -4567 -4 -5
-21 80 -39 189 l-31 196 53 67 c29 36 352 449 717 916 365 468 708 906 762
975 127 163 142 192 142 295 0 96 -25 157 -92 222 -69 67 -107 76 -492 117
-190 21 -444 48 -565 61 -121 13 -393 42 -605 65 -212 22 -396 44 -409 48 -23
7 -27 21 -67 212 -23 113 -40 207 -38 209 2 2 149 -19 326 -47 350 -56 400
-60 471 -36 71 24 121 76 267 275 74 101 171 234 216 294 44 61 164 223 264
360 101 138 240 327 309 420 69 94 133 191 143 218 40 104 13 237 -64 316 -61
64 -119 86 -318 120 -241 41 -1636 282 -1899 328 l-215 38 -37 160 c-51 218
-52 225 -38 225 6 0 340 -54 742 -120z m9493 -559 c481 -120 843 -523 930
-1035 23 -135 15 -404 -15 -522 -124 -493 -473 -853 -926 -955 -708 -160
-1393 381 -1454 1147 -27 345 70 667 284 944 41 53 187 189 250 235 136 97
305 168 474 200 108 21 349 13 457 -14z m-9246 -487 c404 -70 738 -130 742
-133 3 -3 -73 -115 -170 -248 -97 -132 -233 -318 -302 -412 -69 -94 -131 -171
-138 -171 -14 0 -631 97 -669 105 -13 3 -23 13 -23 23 0 9 -47 230 -103 490
-86 391 -101 472 -88 472 9 0 347 -57 751 -126z m6202 -83 c60 -55 103 -126
124 -205 17 -63 20 -579 4 -641 -27 -104 -62 -156 -199 -297 -40 -43 -79 -75
-84 -71 -6 3 -7 2 -4 -4 7 -10 -15 -36 -172 -198 -53 -55 -166 -175 -251 -265
-85 -91 -202 -214 -260 -275 -137 -144 -432 -456 -539 -570 -47 -49 -135 -142
-196 -205 -138 -143 -463 -485 -745 -785 -47 -49 -90 -94 -96 -100 -6 -5 -134
-140 -284 -300 -151 -159 -357 -378 -460 -485 -299 -314 -372 -390 -461 -484
-147 -156 -282 -298 -361 -381 -42 -44 -91 -96 -109 -115 -38 -41 -350 -369
-458 -482 -41 -43 -78 -75 -84 -71 -6 3 -7 1 -4 -4 10 -16 -38 -67 -53 -58 -9
5 -11 4 -6 -3 4 -6 -33 -53 -86 -109 -51 -54 -100 -105 -108 -114 -37 -40
-335 -355 -430 -454 -97 -102 -242 -254 -609 -643 -79 -83 -148 -149 -153
-146 -4 3 -7 2 -6 -3 2 -5 -26 -41 -62 -81 -60 -67 -65 -71 -72 -50 -4 13 -26
137 -49 275 l-42 253 29 21 c58 44 191 186 245 264 73 104 131 218 169 334 46
143 61 245 59 420 l-1 154 108 108 c59 59 112 105 117 102 6 -3 7 -1 4 4 -9
14 42 65 56 56 6 -3 7 -1 3 5 -3 6 8 26 26 45 18 18 103 105 188 193 85 88
249 257 364 376 115 120 213 215 219 211 6 -3 7 -1 3 5 -6 9 66 86 455 487 70
72 139 144 155 161 16 17 157 162 314 323 156 161 291 302 298 312 7 11 20 19
29 19 9 0 13 3 9 7 -9 10 195 213 207 206 6 -3 7 -2 4 4 -4 5 30 48 75 94 252
260 366 378 578 599 129 134 253 262 275 285 22 23 157 162 300 310 143 148
323 334 400 413 77 80 156 161 175 181 19 20 138 143 264 273 126 131 231 236
235 235 3 -1 7 3 9 8 6 20 65 74 75 68 6 -3 7 -2 4 4 -4 6 14 32 40 59 41 43
397 412 658 681 49 51 95 93 101 93 7 0 37 -22 66 -49z m17052 -173 c27 -163
123 -941 135 -1093 19 -243 91 -1446 91 -1522 l0 -23 -1964 0 -1963 0 -7 318
c-12 563 -45 1233 -87 1780 -12 151 -17 277 -13 281 5 4 266 27 579 50 936 69
2260 168 2735 205 245 18 455 34 467 35 18 1 23 -6 27 -31z m1217 -1797 c123
-60 264 -127 314 -149 49 -23 93 -49 97 -59 7 -16 62 -296 224 -1126 55 -286
68 -421 54 -581 -38 -445 -244 -837 -585 -1115 -70 -58 -174 -131 -186 -131
-3 0 -9 120 -13 268 -16 648 -56 1612 -96 2367 -27 506 -30 554 -35 598 -3 20
-4 37 -2 37 2 0 105 -49 228 -109z m-24111 -566 c289 -31 544 -59 566 -63 l42
-7 -106 -135 c-97 -123 -319 -408 -678 -867 -74 -95 -138 -173 -142 -173 -4 0
-31 136 -61 303 -30 166 -85 458 -121 650 -37 191 -65 349 -63 351 2 2 12 2
21 0 9 -2 253 -29 542 -59z m5045 -870 c14 -126 48 -393 76 -592 27 -200 49
-372 49 -383 0 -20 -6 -20 -676 -20 -408 0 -674 4 -672 9 2 5 268 289 593 631
473 499 591 618 596 603 4 -10 19 -121 34 -248z m18115 -236 c0 -12 7 -202 15
-423 26 -705 34 -1043 47 -1883 25 -1721 -28 -3221 -152 -4323 -33 -296 -40
-390 -50 -698 -40 -1266 170 -3432 615 -6347 59 -385 190 -1213 216 -1363 l11
-62 -63 -108 c-125 -215 -319 -489 -500 -707 -118 -142 -421 -441 -574 -566
-949 -776 -2170 -1169 -3880 -1250 -283 -13 -1153 -7 -1430 11 -625 39 -1585
133 -1605 157 -3 4 -35 73 -69 153 -95 218 -246 512 -377 730 -364 611 -650
1209 -1008 2108 -459 1150 -990 2734 -1404 4187 l-80 280 -56 450 c-31 248
-61 489 -67 538 -7 48 -10 89 -8 91 2 3 76 9 164 16 1409 98 2779 425 4110
980 297 124 507 221 922 425 365 179 391 196 363 230 -18 22 -37 19 -246 -30
-1407 -330 -2668 -562 -3739 -689 -2475 -293 -4636 -121 -7940 634 -522 119
-499 116 -493 63 3 -26 22 -38 223 -138 502 -252 1102 -518 1543 -684 1300
-490 2635 -760 4010 -810 140 -6 256 -11 258 -13 10 -10 166 -1316 167 -1403
1 -55 -4 -710 -11 -1455 -10 -1026 -10 -1702 -3 -2785 6 -786 13 -1507 17
-1601 l6 -171 -98 -71 c-810 -577 -1854 -957 -3029 -1101 -390 -48 -542 -56
-1125 -56 -548 0 -614 3 -1035 41 -1023 93 -2195 346 -3210 694 -93 32 -177
61 -185 64 -16 7 -24 51 -190 1086 -277 1720 -543 3595 -719 5060 -102 851
-165 1449 -271 2575 -133 1420 -301 3136 -415 4230 -19 187 -50 482 -67 656
l-32 315 563 595 c311 327 609 640 663 697 l99 102 1132 0 1132 0 32 -178 c17
-97 46 -220 63 -272 41 -129 145 -335 227 -450 87 -122 261 -296 383 -383 171
-121 415 -230 611 -271 131 -28 816 -93 1379 -131 3142 -211 6203 -23 9180
566 720 143 837 174 1050 280 443 223 774 650 880 1137 34 156 53 446 66 1012
3 140 7 261 10 268 3 9 409 12 1989 12 l1985 0 0 -21z m-31545 -1049 c460 -31
1059 -180 1468 -365 684 -309 1376 -892 1696 -1431 35 -58 84 -156 108 -216
208 -512 22 -888 -597 -1202 -341 -174 -739 -292 -1250 -371 -1079 -168 -2005
-35 -2780 397 -270 151 -435 302 -570 523 -155 254 -242 648 -219 1002 31 493
250 931 618 1237 380 316 918 466 1526 426z m-4183 -1060 c513 -72 1006 -141
1095 -153 89 -13 166 -26 169 -30 4 -4 0 -51 -9 -104 -24 -146 -40 -374 -34
-500 l4 -113 -36 5 c-440 59 -561 80 -805 141 -649 163 -1106 441 -1316 800
-46 78 -47 84 -21 84 10 0 439 -59 953 -130z m36902 -202 c3 -29 30 -498 60
-1043 42 -776 52 -1007 45 -1070 -25 -214 -123 -423 -271 -575 -73 -76 -156
-145 -164 -137 -3 3 -1 122 5 264 21 483 31 1067 31 1779 l0 711 68 27 c37 15
99 42 137 61 39 18 73 34 77 34 4 1 9 -23 12 -51z m-27919 -1053 c336 -47 705
-99 820 -115 1195 -167 1440 -200 1470 -200 19 0 35 -2 35 -5 0 -3 22 -137 50
-297 27 -160 49 -292 47 -293 -1 -1 -101 7 -222 17 -121 10 -829 70 -1573 132
-744 63 -1355 116 -1357 118 -3 3 9 45 25 94 52 154 73 288 74 472 0 106 4
162 11 162 6 0 285 -38 620 -85z m4611 -816 c72 -704 227 -2274 309 -3129 41
-437 79 -832 83 -878 4 -46 5 -85 1 -87 -12 -8 -194 24 -284 50 -49 14 -144
52 -210 84 -406 198 -683 575 -750 1021 -12 79 -15 302 -15 1306 l0 1211 408
430 c224 236 408 429 410 428 2 -2 23 -198 48 -436z m23124 -12605 c311 -1753
686 -3710 1025 -5339 115 -552 132 -655 161 -962 20 -225 20 -616 0 -792 -27
-230 -77 -401 -152 -519 -47 -75 -281 -305 -416 -410 -420 -326 -821 -496
-1333 -564 -82 -11 -758 -13 -3690 -13 l-3590 0 -68 24 c-90 30 -208 111 -259
174 -87 111 -120 216 -167 527 -84 563 -57 1057 80 1485 107 335 255 581 494
820 365 365 459 448 675 592 518 347 1260 598 2050 693 326 40 625 54 1010 47
308 -6 378 -10 743 -43 98 -9 180 -14 182 -12 8 7 -600 159 -755 188 -564 108
-1088 157 -1550 147 -710 -16 -1344 -134 -1865 -347 -83 -34 -157 -63 -167
-66 -18 -7 -20 4 -38 286 -50 781 -201 1697 -387 2343 -13 49 -23 91 -20 94 3
2 144 -9 314 -26 1757 -174 3185 -115 4368 180 920 229 1686 590 2355 1109
268 208 588 517 801 774 57 69 105 124 106 122 2 -2 44 -232 93 -512z m-12046
-776 c3 -68 8 -283 11 -478 19 -1221 83 -3603 146 -5440 12 -338 19 -678 16
-755 -8 -217 -61 -393 -172 -570 -187 -297 -436 -474 -790 -562 -66 -16 -348
-17 -4675 -20 -4174 -3 -4612 -2 -4684 12 -251 51 -436 231 -501 489 -30 120
-71 382 -86 556 -15 175 -6 588 16 730 86 558 298 980 668 1337 404 388 934
639 1742 826 92 22 185 31 580 57 259 17 487 34 508 38 l38 7 -396 249 c-218
137 -404 256 -415 265 -15 13 -31 77 -74 311 -184 982 -489 2700 -482 2708 2
2 82 -22 177 -52 379 -121 929 -266 1349 -356 1596 -342 3107 -399 4440 -169
891 154 1758 462 2455 873 61 36 113 65 116 65 4 1 10 -54 13 -121z"/>
<path d="M19605 41303 c-177 -16 -458 -83 -625 -148 -701 -276 -1239 -826
-1533 -1570 -122 -309 -184 -594 -208 -958 -13 -191 -3 -432 25 -617 8 -52 17
-113 20 -135 l6 -40 -101 -85 c-56 -47 -172 -155 -258 -240 -532 -529 -737
-967 -591 -1266 102 -208 342 -318 730 -331 302 -11 636 33 1091 143 l186 45
129 -86 c313 -210 678 -348 1052 -399 132 -19 436 -21 580 -5 761 84 1464 554
1896 1269 210 347 364 803 412 1222 l6 56 87 69 c294 232 630 552 795 758 270
337 390 619 356 838 -67 437 -629 571 -1590 381 -69 -14 -132 -27 -141 -30
-11 -3 -26 10 -44 38 -98 148 -301 371 -460 505 -384 322 -828 519 -1305 578
-113 14 -402 18 -515 8z m585 -242 c562 -103 1041 -389 1416 -846 156 -190
337 -513 429 -764 l49 -134 -32 -28 c-18 -16 -36 -29 -41 -29 -4 0 -16 21 -26
48 -10 26 -29 71 -42 100 l-24 53 -53 -43 c-202 -163 -254 -203 -361 -279
-181 -130 -365 -249 -738 -477 -38 -23 -70 -42 -73 -42 -2 0 -21 -11 -42 -23
-56 -35 -385 -217 -482 -267 -200 -102 -255 -133 -252 -142 1 -5 -2 -7 -7 -4
-13 8 -182 -74 -175 -85 3 -5 -2 -6 -10 -3 -8 3 -50 -13 -93 -34 -43 -22 -112
-56 -153 -75 -41 -19 -100 -45 -130 -59 -200 -93 -446 -195 -745 -311 -229
-89 -565 -194 -790 -247 -121 -29 -130 -30 -142 -14 -11 16 -123 346 -123 365
0 4 17 11 38 14 283 47 890 238 1187 375 11 5 43 18 70 29 28 10 76 31 107 45
31 14 59 26 61 26 6 0 129 56 407 186 120 56 630 312 645 324 6 4 55 31 110
61 55 29 114 61 130 71 17 9 52 29 79 44 56 29 296 171 368 217 26 16 45 34
41 40 -3 6 -1 7 6 3 12 -8 34 5 261 155 152 100 350 241 416 296 22 18 83 69
136 113 53 44 100 84 103 90 10 15 -84 142 -98 133 -7 -4 -43 -34 -82 -68
-246 -213 -607 -459 -1087 -742 -91 -53 -164 -102 -161 -107 4 -5 1 -6 -5 -2
-16 10 -54 -12 -46 -26 4 -7 3 -8 -5 -4 -6 4 -48 -13 -94 -37 -234 -128 -639
-337 -650 -337 -3 0 -69 -31 -148 -69 -158 -75 -608 -274 -616 -272 -2 0 -24
-9 -50 -20 -27 -11 -95 -38 -153 -60 -58 -21 -114 -43 -125 -49 -35 -17 -408
-138 -511 -165 -55 -15 -142 -36 -194 -46 -52 -10 -114 -23 -137 -28 -35 -7
-43 -5 -48 8 -10 32 -35 222 -35 264 l0 43 83 13 c192 30 534 130 832 243 72
27 139 53 150 58 11 5 97 40 190 78 411 168 897 407 1433 704 167 92 473 277
565 340 16 11 89 60 163 110 74 50 134 94 134 99 0 5 4 9 10 9 19 0 274 202
330 261 14 15 34 31 44 37 18 9 15 15 -41 73 l-60 62 -44 -40 c-24 -22 -84
-73 -134 -113 -49 -40 -89 -77 -88 -81 2 -5 -3 -6 -10 -4 -6 3 -27 -9 -46 -25
-18 -17 -37 -30 -40 -30 -4 0 -16 -8 -27 -18 -10 -9 -53 -39 -94 -66 -41 -27
-79 -53 -85 -58 -21 -19 -256 -168 -392 -248 -78 -46 -139 -88 -136 -94 3 -5
1 -6 -5 -2 -10 6 -95 -35 -112 -54 -3 -3 -27 -17 -55 -31 -27 -14 -111 -59
-185 -99 -270 -146 -651 -335 -872 -433 -26 -11 -44 -25 -41 -30 3 -6 1 -7 -5
-3 -7 4 -96 -29 -199 -73 -473 -201 -885 -338 -1166 -387 -84 -15 -100 -15
-107 -3 -11 17 -4 195 16 363 15 136 60 376 72 388 4 4 55 19 112 34 100 24
332 95 375 113 11 5 45 18 75 29 172 63 241 91 392 155 94 39 164 75 161 80
-3 6 -1 7 6 3 6 -4 73 20 149 55 179 81 662 323 729 366 29 18 56 33 61 33 4
0 50 25 101 55 51 30 95 55 97 55 9 0 369 219 437 266 42 30 81 54 86 54 4 0
16 9 26 20 10 11 22 20 27 20 5 0 26 13 46 28 20 16 82 62 137 102 55 41 104
77 109 81 8 7 -105 64 -151 75 -17 5 -44 -9 -110 -58 -49 -35 -103 -73 -120
-83 -18 -11 -33 -23 -33 -27 0 -4 -5 -8 -10 -8 -12 0 -153 -92 -158 -102 -2
-5 -8 -8 -13 -8 -4 0 -43 -22 -86 -48 -80 -50 -172 -104 -390 -229 -68 -38
-119 -74 -115 -78 4 -5 1 -5 -5 -1 -8 4 -57 -17 -115 -48 -57 -30 -160 -83
-231 -119 -70 -35 -124 -67 -120 -72 5 -4 3 -5 -4 -2 -6 4 -77 -24 -158 -63
-81 -38 -149 -70 -151 -70 -12 0 -133 -61 -139 -70 -3 -6 -10 -8 -14 -6 -4 3
-50 -13 -102 -35 -273 -118 -839 -312 -839 -288 0 21 69 189 126 309 383 796
1076 1304 1899 1394 98 10 452 -4 555 -23z m2921 -1015 c270 -61 371 -182 325
-390 -48 -214 -237 -485 -568 -813 -583 -578 -1465 -1178 -2490 -1693 -1083
-546 -2078 -889 -2887 -997 -83 -11 -199 -17 -341 -17 -246 -1 -336 13 -455
68 -125 59 -177 132 -177 250 0 172 124 404 371 691 78 91 411 419 441 435 16
8 21 3 34 -36 l16 -47 -71 -75 c-83 -89 -121 -142 -156 -218 -34 -75 -31 -172
9 -232 105 -157 450 -140 1064 54 1103 347 2813 1219 3729 1901 437 325 649
564 648 733 0 58 -25 121 -59 151 -68 59 -200 85 -354 69 -52 -5 -95 -8 -95
-7 -38 63 -52 99 -42 102 47 17 417 75 567 89 96 9 426 -3 491 -18z m-733
-390 c7 -8 -37 -83 -76 -126 l-40 -45 -10 25 c-5 14 -21 53 -35 87 l-25 62 21
5 c23 5 158 -2 165 -8z m-458 -460 c0 -2 -8 -10 -17 -17 -16 -13 -17 -12 -4 4
13 16 21 21 21 13z m-83 -51 c0 -8 -4 -12 -9 -9 -5 3 -6 10 -3 15 9 13 12 11
12 -6z m-237 -179 c0 -2 -8 -10 -17 -17 -16 -13 -17 -12 -4 4 13 16 21 21 21
13z m-930 -580 c0 -2 -7 -7 -16 -10 -8 -3 -12 -2 -9 4 6 10 25 14 25 6z m-590
-310 c0 -2 -8 -10 -17 -17 -16 -13 -17 -12 -4 4 13 16 21 21 21 13z m-160 -80
c0 -2 -8 -10 -17 -17 -16 -13 -17 -12 -4 4 13 16 21 21 21 13z m-170 -90 c0
-2 -7 -7 -16 -10 -8 -3 -12 -2 -9 4 6 10 25 14 25 6z m2376 -153 c-40 -145
-65 -225 -98 -310 -36 -95 -44 -106 -101 -156 -34 -29 -80 -67 -102 -82 -54
-40 -75 -61 -67 -71 4 -4 2 -4 -5 -1 -6 4 -87 -44 -180 -107 -92 -62 -222
-145 -288 -184 -66 -40 -125 -75 -131 -79 -13 -10 -30 -20 -129 -73 -44 -24
-107 -58 -140 -77 -184 -103 -665 -331 -880 -418 -38 -15 -88 -35 -110 -45
-189 -82 -644 -222 -719 -222 -42 0 -333 118 -365 148 -6 6 33 33 40 28 9 -5
453 151 554 195 11 5 36 15 55 22 298 108 1183 532 1513 725 32 19 60 34 63
34 20 0 686 406 692 422 2 4 8 8 14 8 5 0 67 40 136 88 168 116 193 134 216
155 11 9 24 17 29 17 4 0 6 -8 3 -17z m-4628 -557 c53 -114 57 -106 -46 -106
-49 0 -91 3 -95 6 -9 10 26 73 68 122 20 23 38 42 40 42 2 0 17 -29 33 -64z
m4366 -113 c-58 -106 -196 -310 -269 -398 -379 -458 -859 -742 -1420 -841
-201 -35 -506 -30 -740 13 l-90 16 50 14 c165 47 493 162 620 218 17 7 64 27
105 45 225 97 628 292 830 403 30 16 80 43 110 60 30 16 60 33 65 37 6 4 30
18 55 32 159 88 550 340 558 360 2 4 8 8 13 8 6 0 15 5 22 10 21 18 120 90
124 90 2 0 -13 -30 -33 -67z m-1429 -173 c-3 -5 -12 -10 -18 -10 -7 0 -6 4 3
10 19 12 23 12 15 0z m-485 -224 c0 -2 -8 -10 -17 -17 -16 -13 -17 -12 -4 4
13 16 21 21 21 13z m-99 -63 c13 -16 12 -17 -3 -4 -10 7 -18 15 -18 17 0 8 8
3 21 -13z m-461 -177 c0 -2 -8 -10 -17 -17 -16 -13 -17 -12 -4 4 13 16 21 21
21 13z"/>
</g>
</svg>
